<svg width="100" height="100" viewBox="0 0 100 100" fill="none" xmlns="http://www.w3.org/2000/svg">
    <!-- AllIcons.expandAll -->
    <g transform="scale(5) translate(2,2)">
        <path d="M4.5 5.5L8 2L11.5 5.5" stroke="#6C707E" stroke-linecap="round" stroke-linejoin="round"/>
        <path d="M4.5 10.5L8 14L11.5 10.5" stroke="#6C707E" stroke-linecap="round" stroke-linejoin="round"/>
    </g>

    <!-- Simple C++ Icon -->
    <g transform="translate(28, 25) scale(0.15)">
        <path fill="#000000" d="M153,274.175c-56.243,0-102-45.757-102-102s45.757-102,102-102c36.292,0,70.139,19.53,88.331,50.968 l-44.143,25.544c-9.105-15.736-26.038-25.512-44.188-25.512c-28.122,0-51,22.878-51,51c0,28.121,22.878,51,51,51 c18.152,0,35.085-9.776,44.191-25.515l44.143,25.543C223.142,254.644,189.294,274.175,153,274.175z"/>
        <polygon fill="#000000" points="255,166.508 243.666,166.508 243.666,155.175 232.334,155.175 232.334,166.508 221,166.508 221,177.841 232.334,177.841 232.334,189.175 243.666,189.175 243.666,177.841 255,177.841"/>
        <polygon fill="#000000" points="297.5,166.508 286.166,166.508 286.166,155.175 274.834,155.175 274.834,166.508 263.5,166.508 263.5,177.841 274.834,177.841 274.834,189.175 286.166,189.175 286.166,177.841 297.5,177.841"/>
    </g>
</svg>
